<svg preserveAspectRatio="none" overflow="visible" style="display: block;" width="37.6494" height="22.5122" viewBox="0 0 37.6494 22.5122" fill="none" xmlns="http://www.w3.org/2000/svg">
<g id="Group 2147228495">
<path id="Vector" fill-rule="evenodd" clip-rule="evenodd" d="M10.6098 8.17624C10.6098 8.64059 10.66 9.01552 10.7479 9.29004C10.8483 9.56614 10.9738 9.86734 11.1495 10.1936C11.2122 10.2925 11.2373 10.3929 11.2373 10.4807C11.2373 10.6062 11.162 10.7317 10.9989 10.8572L10.2098 11.3827C10.1144 11.4515 10.001 11.4908 9.88352 11.4957C9.75802 11.4957 9.63252 11.4329 9.50859 11.32C9.34007 11.1387 9.18931 10.9417 9.05836 10.7317C8.91813 10.4911 8.78833 10.2446 8.66932 9.99284C7.69356 11.1443 6.46524 11.72 4.9875 11.72C3.93645 11.72 3.09717 11.4204 2.4838 10.8196C1.87199 10.2172 1.55824 9.41711 1.55824 8.41469C1.55824 7.35109 1.93474 6.48515 2.69715 5.83569C3.46112 5.18467 4.47452 4.85837 5.76402 4.85837C6.19072 4.85837 6.62839 4.89602 7.09117 4.95877C7.55552 5.02152 8.03241 5.12192 8.53127 5.23487V4.32029C8.53127 3.36807 8.33204 2.7045 7.94299 2.31702C7.54297 1.92797 6.86684 1.7413 5.90364 1.7413C5.46439 1.7413 5.0126 1.78993 4.54982 1.90287C4.08704 2.01582 3.63525 2.15387 3.19757 2.32957C3.05639 2.39232 2.90892 2.44723 2.75833 2.49272C2.69381 2.51351 2.62681 2.52565 2.5591 2.5288C2.3834 2.5288 2.29555 2.4033 2.29555 2.14132V1.52795C2.29555 1.32715 2.32065 1.17655 2.3834 1.0887C2.47816 0.974809 2.59859 0.885024 2.7348 0.826723C3.23649 0.577623 3.76562 0.388086 4.31137 0.261978C4.94988 0.0985151 5.60695 0.0188861 6.26602 0.0250994C7.75631 0.0250994 8.84501 0.363947 9.54624 1.04007C10.2365 1.71463 10.5847 2.74215 10.5847 4.1195V8.17624H10.6098ZM5.52714 10.0807C5.93972 10.0807 6.36485 10.0054 6.81664 9.85479C7.27586 9.6961 7.68573 9.42033 8.00574 9.05473C8.208 8.82348 8.35404 8.54859 8.43244 8.25154C8.50617 7.95191 8.55794 7.58797 8.55794 7.16284V6.63731C8.17789 6.54467 7.79295 6.47344 7.40492 6.42397C7.01468 6.37439 6.62174 6.34924 6.22837 6.34867C5.38909 6.34867 4.77572 6.51181 4.36157 6.85066C3.949 7.18794 3.74977 7.66327 3.74977 8.28919C3.74977 8.87747 3.8988 9.31671 4.21254 9.61634C4.51217 9.93009 4.94985 10.0807 5.52714 10.0807ZM15.5827 11.4329C15.3568 11.4329 15.2062 11.3953 15.1058 11.3074C15.0054 11.2321 14.9176 11.0564 14.8423 10.8196L11.9009 1.1389C11.8437 0.976581 11.8058 0.80809 11.788 0.636906C11.788 0.436108 11.8884 0.323159 12.0876 0.323159H13.3159C13.5528 0.323159 13.7159 0.362377 13.8022 0.448658C13.9042 0.523957 13.9795 0.699656 14.0532 0.938103L16.1585 9.22729L18.1115 0.938103C18.1743 0.687106 18.2496 0.523957 18.3484 0.448658C18.4989 0.356357 18.6742 0.312547 18.8504 0.323159H19.8513C20.0897 0.323159 20.2528 0.362377 20.3532 0.448658C20.4521 0.523957 20.5415 0.699656 20.5901 0.938103L22.5683 9.32769L24.7347 0.938103C24.81 0.687106 24.8979 0.523957 24.9857 0.448658C25.131 0.3564 25.3018 0.312472 25.4736 0.323159H26.6392C26.8384 0.323159 26.9529 0.425127 26.9529 0.636906C26.9529 0.699656 26.9388 0.762405 26.9262 0.837704C26.9066 0.944747 26.8772 1.04977 26.8384 1.15145L23.8217 10.8305C23.7464 11.0815 23.6586 11.2431 23.5582 11.3184C23.4168 11.4091 23.2505 11.453 23.0828 11.4439H22.0051C21.7698 11.4439 21.6051 11.4063 21.5031 11.3184C21.4043 11.2306 21.3165 11.0674 21.2678 10.8164L19.3273 2.74058L17.3978 10.8039C17.335 11.0549 17.2613 11.218 17.1624 11.3059C17.0605 11.3937 16.8848 11.4314 16.6604 11.4314L15.5843 11.4329H15.5827ZM31.6717 11.7702C31.0206 11.7702 30.3696 11.6949 29.7437 11.5459C29.1178 11.3953 28.6299 11.2321 28.3036 11.0439C28.1028 10.9325 27.9663 10.807 27.9161 10.6941C27.8672 10.5833 27.8416 10.4637 27.8408 10.3427V9.70419C27.8408 9.44221 27.9412 9.31671 28.1279 9.31671C28.2032 9.31671 28.2785 9.32926 28.3538 9.35436C28.4291 9.37946 28.542 9.42966 28.6675 9.47986C29.0927 9.66811 29.5554 9.81714 30.0449 9.91754C30.5469 10.0179 31.0332 10.0681 31.5352 10.0681C32.3227 10.0681 32.9376 9.93009 33.3628 9.65399C33.5666 9.53086 33.7341 9.356 33.8485 9.14715C33.9628 8.9383 34.0199 8.70291 34.0138 8.46489C34.0184 8.30368 33.9909 8.14316 33.933 7.99263C33.8751 7.8421 33.7879 7.70455 33.6765 7.58797C33.4506 7.35109 33.0239 7.13774 32.4105 6.93694L30.5955 6.3722C29.6809 6.08512 29.0048 5.65999 28.5922 5.09682C28.1884 4.57707 27.9678 3.93839 27.9647 3.28022C27.9647 2.7547 28.0793 2.29192 28.3036 1.89032C28.5295 1.4903 28.8291 1.1389 29.2056 0.864373C29.5821 0.575726 30.0057 0.362378 30.5077 0.213348C31.0097 0.0627496 31.5352 0 32.0858 0C32.3603 0 32.6506 0.01255 32.9251 0.0501996C33.2122 0.0878492 33.4741 0.138048 33.7377 0.188248C33.9887 0.250997 34.2271 0.313747 34.4515 0.387478C34.6774 0.462777 34.8531 0.538075 34.9786 0.613375C35.1264 0.687797 35.2552 0.795131 35.3551 0.927122C35.4359 1.04894 35.475 1.19374 35.4664 1.3397V1.92797C35.4664 2.19152 35.366 2.32957 35.1778 2.32957C35.0111 2.31046 34.8497 2.25932 34.7025 2.17897C33.946 1.84479 33.1261 1.67835 32.2992 1.6911C31.5854 1.6911 31.0206 1.80248 30.6332 2.04092C30.2441 2.27937 30.0449 2.64175 30.0449 3.15472C30.0449 3.50612 30.1704 3.80732 30.4214 4.0442C30.6724 4.28264 31.1336 4.52109 31.7972 4.73444L33.5761 5.29605C34.4766 5.58469 35.1292 5.98629 35.5166 6.49927C35.9041 7.01224 36.0924 7.60052 36.0924 8.25154C36.0924 8.78962 35.9794 9.27906 35.7676 9.70419C35.545 10.1329 35.2331 10.5089 34.8531 10.807C34.464 11.1208 34.0012 11.3451 33.4632 11.5082C32.8984 11.6824 32.3117 11.7702 31.6717 11.7702Z" fill="#A09E98"/>
<path id="Vector_2" fill-rule="evenodd" clip-rule="evenodd" d="M0.59317 14.8613C5.90177 17.9408 12.4528 19.8076 19.225 19.8076C23.7963 19.8076 28.8163 18.8553 33.4378 16.9023C34.128 16.5885 34.7147 17.3525 34.0386 17.8545C29.9191 20.8978 23.9328 22.5121 18.7873 22.5121C11.5743 22.5121 5.07661 19.8452 0.166474 15.412C-0.221003 15.0621 0.128825 14.5852 0.59317 14.8613ZM37.507 14.5476C37.9573 15.1123 37.3815 18.9808 35.1775 20.8335C34.8402 21.1222 34.5139 20.9716 34.6645 20.5966L34.939 19.908C35.4771 18.5275 36.1972 16.4599 35.7548 15.8998C35.2277 15.2253 32.2722 15.5751 30.9325 15.7383C30.5325 15.7885 30.4697 15.4371 30.8337 15.1735C33.1868 13.5216 37.0568 13.997 37.507 14.5476Z" fill="#A09E98"/>
</g>
</svg>
