<svg width="120" height="16" viewBox="0 0 120 16" fill="none" xmlns="http://www.w3.org/2000/svg">
<g id="fireworks 1" clip-path="url(#clip0_0_36)">
<path id="Vector" fill-rule="evenodd" clip-rule="evenodd" d="M18.8876 -0.000289181L15.3129 8.90335L11.7348 -0.000289181H9.43948L13.3612 9.73287C13.6865 10.545 14.4494 11.0696 15.2995 11.0696C16.1495 11.0696 16.9108 10.545 17.2377 9.73637L21.183 -0.000289181H18.8876ZM20.415 13.5652L26.9541 6.69357L26.0621 4.50644L18.9194 12.0263C18.3225 12.6555 18.1515 13.5826 18.4818 14.3947C18.8105 15.1998 19.57 15.7209 20.4167 15.7209L20.4201 15.7244L30.6294 15.6983L29.7374 13.5111L20.4167 13.5652H20.415ZM3.67503 6.68833L4.56702 4.5012L11.7097 12.0211C12.3066 12.6485 12.4793 13.5791 12.1473 14.3895C11.8187 15.1964 11.0558 15.7157 10.2124 15.7157L0.00309819 15.6913L-0.000255173 15.6948L0.89174 13.5076L10.2124 13.5617L3.67503 6.68833Z" fill="#A09E98"/>
<path id="Vector_2" d="M38.7849 14.8512L38.7866 14.8529H40.5422V8.56861H46.2126V6.93916H40.5422V2.85072H46.7794V1.22126H38.7849V14.8512Z" fill="#A09E98"/>
<path id="Vector_3" d="M50.2465 5.00677H48.6001V14.8515H50.2465V5.00677Z" fill="#A09E98"/>
<path id="Vector_4" d="M54.4216 6.31206H54.4233C54.3862 6.40617 54.3513 6.46369 54.2404 6.46369C54.1483 6.46369 54.113 6.42707 54.113 6.33296V5.00675H52.4666V14.8515H54.1095V9.26424C54.1095 7.3734 54.953 6.63446 56.5441 6.63446H57.862V4.96842H56.8006C55.503 4.96842 54.8442 5.36577 54.4216 6.31206Z" fill="#A09E98"/>
<path id="Vector_5" d="M63.3381 13.663C61.5727 13.663 60.2548 12.6208 60.1443 10.4075H67.8386V9.45947C67.8386 6.71467 66.2289 4.72623 63.2996 4.72623C60.3706 4.72623 58.5045 6.71467 58.5045 9.93176C58.5045 13.1489 60.3153 15.1373 63.3349 15.1373C66.3545 15.1373 67.5955 13.2273 67.8736 11.732H66.1569C65.8903 12.8509 65.1038 13.663 63.3381 13.663ZM63.2996 6.19881C65.0401 6.19881 66.1166 7.16605 66.1918 8.98372H60.1894C60.4626 7.12598 61.7253 6.19881 63.2996 6.19881Z" fill="#A09E98"/>
<path id="Vector_6" d="M79.5233 13.0146C79.483 13.1854 79.4327 13.2429 79.3018 13.2429C79.171 13.2429 79.1157 13.1854 79.0807 13.0146L77.2496 5.00677H74.4126L72.5818 13.0146C72.5416 13.1854 72.4912 13.2429 72.3604 13.2429C72.2295 13.2429 72.1742 13.1854 72.1389 13.0146L70.3081 5.00677H68.6984V5.38666H68.7086L70.942 14.8515H73.7689L75.6549 6.59612C75.6903 6.46194 75.7256 6.42535 75.8362 6.42535C75.9268 6.42535 75.982 6.46543 76.0174 6.59612L77.9034 14.8515H80.7303L82.9637 5.38666V5.00677H81.3541L79.5233 13.0146Z" fill="#A09E98"/>
<path id="Vector_7" d="M88.7049 4.7241C85.94 4.7241 83.7454 6.52087 83.7454 9.92963C83.7454 13.3384 85.9386 15.1352 88.7049 15.1352C91.4716 15.1352 93.6662 13.3384 93.6662 9.92963C93.6662 6.52087 91.4698 4.7241 88.7049 4.7241ZM88.7084 13.6208C86.787 13.6208 85.4139 12.298 85.4139 9.92963C85.4139 7.56127 86.787 6.23854 88.7084 6.23854C90.6298 6.23854 92.003 7.56476 92.003 9.92963C92.003 12.2945 90.6298 13.6208 88.7084 13.6208Z" fill="#A09E98"/>
<path id="Vector_8" d="M97.3618 6.31206C97.3264 6.40617 97.2914 6.46369 97.1809 6.46369C97.0885 6.46369 97.0532 6.42707 97.0532 6.33296V5.00675H95.4068V14.8497H97.05V9.26424C97.05 7.3734 97.8932 6.63446 99.4843 6.63446H100.802V4.96842H99.7411C98.4431 4.96842 97.7844 5.36577 97.3618 6.31206Z" fill="#A09E98"/>
<path id="Vector_9" d="M103.718 9.58814V1.22126H102.071V14.8599H103.718V11.716L105.503 10.1336L109.055 14.8564H110.856V14.4765L106.719 9.05138L110.856 5.3864V5.00647H108.74L103.718 9.58814Z" fill="#A09E98"/>
<path id="Vector_10" d="M116.561 9.21693L115.209 8.95202C113.911 8.69583 113.342 8.41351 113.342 7.59791C113.342 6.78231 113.984 6.17758 115.52 6.17758C117.056 6.17758 117.935 6.7858 118.062 8.12943H119.739C119.553 5.72973 117.76 4.72765 115.514 4.72765C113.267 4.72765 111.689 5.73143 111.689 7.62231C111.689 9.51318 112.98 10.1685 114.838 10.5275L116.191 10.7923C117.509 11.0485 118.168 11.3431 118.168 12.1935C118.168 13.0439 117.507 13.6783 115.918 13.6783C114.328 13.6783 113.273 12.9969 113.146 11.6899H111.471C111.627 14.0373 113.466 15.1353 115.919 15.1353C118.372 15.1353 119.817 14.0478 119.817 12.0959C119.817 10.1441 118.298 9.55674 116.561 9.21693Z" fill="#A09E98"/>
<path id="Vector_11" d="M50.2465 1.22126H48.6001V3.22889H50.2465V1.22126Z" fill="#A09E98"/>
</g>
<defs>
<clipPath id="clip0_0_36">
<rect width="120" height="16" fill="white"/>
</clipPath>
</defs>
</svg>
